<svg width="59" height="16" viewBox="0 0 59 16" fill="none" xmlns="http://www.w3.org/2000/svg">
<path fill-rule="evenodd" clip-rule="evenodd" d="M4.5883 0H13.2313C15.2649 0 16.9134 1.64778 16.9134 3.68041V12.3196C16.9134 14.3522 15.2649 16 13.2313 16H4.5883C2.55476 16 0.90625 14.3522 0.90625 12.3196V3.68041C0.90625 1.64778 2.55476 0 4.5883 0ZM11.5589 2.55592V3.86539V3.8658C11.5589 3.9992 11.667 4.10764 11.8009 4.10764H13.0737C13.2964 4.10764 13.4769 4.2881 13.4769 4.51071V11.4865C13.4769 11.7091 13.2964 11.8895 13.0737 11.8895H11.8009C11.6674 11.8895 11.5589 11.9976 11.5589 12.1314V13.4433C11.5589 13.6659 11.3784 13.8464 11.1557 13.8464H6.66061C6.4379 13.8464 6.25736 13.6659 6.25736 13.4433V12.1314C6.25736 11.998 6.14928 11.8895 6.01541 11.8895H4.74507C4.52237 11.8895 4.34183 11.7091 4.34183 11.4865V9.89178C4.34183 9.66917 4.52237 9.48871 4.74507 9.48871H6.33842C6.56112 9.48871 6.74167 9.66917 6.74167 9.89178V11.2037C6.74167 11.3371 6.85015 11.4451 6.98361 11.4451H10.8331C10.9666 11.4451 11.075 11.3367 11.075 11.2033L11.0771 4.7947C11.0771 4.66089 10.969 4.55285 10.8351 4.55285H7.44704C7.22434 4.55285 7.04379 4.37239 7.04379 4.14979V2.55592C7.04379 2.33331 7.22434 2.15285 7.44704 2.15285H11.1557C11.3784 2.15285 11.5589 2.33331 11.5589 2.55592Z" fill="white"/>
<path d="M24.724 3.3501V9.47797C24.724 10.5231 24.3265 10.9303 23.3067 10.9303H21.6086L21.4297 12.5789H23.3063C25.2702 12.5789 26.3968 11.4618 26.3968 9.51358V3.3501H24.7236H24.724Z" fill="white"/>
<path d="M39.9262 7.07718V5.48782H37.8027V3.98193H36.3297L36.1631 5.48782H34.8125V7.07759H36.1528V9.97641C36.1528 11.6304 37.0588 12.5794 38.6382 12.5794H39.9258V10.9544H38.662C38.1044 10.9544 37.8023 10.7948 37.8023 9.95268V7.07759H39.9258L39.9262 7.07718Z" fill="white"/>
<path d="M48.906 3.44421V7.08043H45.0046V3.44421H43.2773V12.5507H45.0046V8.72994H48.906V12.5507H50.6328V3.44421H48.906Z" fill="white"/>
<path d="M56.7161 9.32411C57.8558 8.86662 58.535 7.81659 58.535 6.50999C58.535 5.60074 58.221 4.82774 57.6274 4.2745C57.0444 3.73148 56.2363 3.44421 55.2902 3.44421H51.6953V12.5507H53.4225V9.44401L54.706 9.44606L56.8774 12.5523H58.9919L56.7165 9.32452L56.7161 9.32411ZM53.4221 5.05485H55.2185C56.2473 5.05485 56.8372 5.55204 56.8372 6.41956C56.8372 7.28708 56.2473 7.79531 55.2185 7.79531H53.4221V5.05526V5.05485Z" fill="white"/>
<path d="M33.4827 6.19372C32.8314 5.52794 31.9459 5.17603 30.9212 5.17603C28.7875 5.17603 27.2969 6.695 27.2969 8.86994C27.2969 11.0449 28.7825 12.5757 30.9093 12.5757C32.4654 12.5757 33.7726 11.7336 34.3208 10.3779L34.3654 10.2678L32.5841 10.125C32.2411 10.659 31.6405 10.9626 30.9093 10.9626C29.9943 10.9626 29.3062 10.4683 29.054 9.63516H34.523L34.5336 9.1658C34.5611 7.9705 34.1877 6.91516 33.4827 6.19413V6.19372ZM28.984 8.11741C29.0871 7.76672 29.2656 7.47291 29.5154 7.24375C29.8732 6.91475 30.3595 6.74083 30.9212 6.74083C31.8792 6.74083 32.5829 7.24211 32.8568 8.11741H28.984Z" fill="white"/>
</svg>
