<svg width="39" height="38" viewBox="0 0 39 38" fill="none" xmlns="http://www.w3.org/2000/svg">
<path d="M30.1966 11.465V13.6117H8.72969V11.465H30.1966ZM30.1966 17.9051V27.2074H8.72969V17.9051H30.1966ZM8.72969 9.31836H6.58301V11.465V27.2074V29.3541H8.72969H30.1966H32.3432V27.2074V11.465V9.31836H30.1966H8.72969ZM15.1698 23.9874C15.1698 23.3946 14.6892 22.914 14.0964 22.914H11.9497C11.3569 22.914 10.8764 23.3946 10.8764 23.9874V23.9874C10.8764 24.5802 11.3569 25.0607 11.9497 25.0607H14.0964C14.6892 25.0607 15.1698 24.5802 15.1698 23.9874V23.9874ZM23.7565 23.9874C23.7565 23.3946 23.2759 22.914 22.6832 22.914H17.6742C17.0814 22.914 16.6009 23.3946 16.6009 23.9874V23.9874C16.6009 24.5802 17.0814 25.0607 17.6742 25.0607H22.6832C23.2759 25.0607 23.7565 24.5802 23.7565 23.9874V23.9874Z" fill="black"/>
</svg>
