<svg width="38" height="38" viewBox="0 0 38 38" fill="none" xmlns="http://www.w3.org/2000/svg">
<path d="M12.696 9.31836C13.2147 9.31836 13.6352 9.73884 13.6352 10.2575V11.8228H19.2702V10.2575C19.2702 9.73884 19.6907 9.31836 20.2094 9.31836C20.7281 9.31836 21.1486 9.73884 21.1486 10.2575V11.8228H25.2184V14.9534V16.8318H24.5923H23.34H18.9572H9.56537V27.4757H18.8202C19.3015 28.2114 19.9159 28.8493 20.6321 29.3541H9.56537H7.68701V27.4757V16.8318V14.9534V11.8228H11.7568V10.2575C11.7568 9.73884 12.1773 9.31836 12.696 9.31836ZM18.9572 23.719C18.9572 22.2245 19.5509 20.7912 20.6077 19.7345C21.6644 18.6777 23.0977 18.084 24.5923 18.084C26.0868 18.084 27.5201 18.6777 28.5769 19.7345C29.6337 20.7912 30.2273 22.2245 30.2273 23.719C30.2273 25.2135 29.6337 26.6468 28.5769 27.7036C27.5201 28.7604 26.0868 29.3541 24.5923 29.3541C23.0977 29.3541 21.6644 28.7604 20.6077 27.7036C19.5509 26.6468 18.9572 25.2135 18.9572 23.719ZM25.2184 21.2146C25.2184 20.8688 24.9381 20.5884 24.5923 20.5884C24.2465 20.5884 23.9661 20.8688 23.9661 21.2146V22.3516V23.719C23.9661 24.0648 24.2465 24.3451 24.5923 24.3451H25.7941H26.4706C26.8164 24.3451 27.0967 24.0648 27.0967 23.719C27.0967 23.3732 26.8164 23.0929 26.4706 23.0929H25.7941H25.2184V22.3516V21.2146Z" fill="black"/>
</svg>
