<svg width="38" height="38" viewBox="0 0 38 38" fill="none" xmlns="http://www.w3.org/2000/svg">
<path d="M25.9293 11.1967V27.4757H12.1547V11.1967H25.9293ZM12.1547 9.31836H10.2764V11.1967V27.4757V29.3541H12.1547H25.9293H27.8077V27.4757V11.1967V9.31836H25.9293H12.1547ZM13.407 13.0751V15.5795H15.9114V13.0751H13.407ZM15.9114 25.5974V23.0929H13.407V25.5974H15.9114ZM18.1028 13.3881C17.5841 13.3881 17.1637 13.8086 17.1637 14.3273V14.3273C17.1637 14.846 17.5841 15.2665 18.1028 15.2665V15.2665H23.7379V15.2665C24.2566 15.2665 24.6771 14.846 24.6771 14.3273V14.3273C24.6771 13.8086 24.2566 13.3881 23.7379 13.3881V13.3881H18.1028V13.3881ZM19.3551 18.397C18.8364 18.397 18.4159 18.8175 18.4159 19.3362V19.3362C18.4159 19.8549 18.8364 20.2754 19.3551 20.2754V20.2754H23.7379V20.2754C24.2566 20.2754 24.6771 19.8549 24.6771 19.3362V19.3362C24.6771 18.8175 24.2566 18.397 23.7379 18.397V18.397H19.3551V18.397ZM18.1028 23.406C17.5841 23.406 17.1637 23.8265 17.1637 24.3451V24.3451C17.1637 24.8638 17.5841 25.2843 18.1028 25.2843V25.2843H23.7379V25.2843C24.2566 25.2843 24.6771 24.8638 24.6771 24.3451V24.3451C24.6771 23.8265 24.2566 23.406 23.7379 23.406V23.406H18.1028V23.406ZM16.9797 18.8392V18.8392C17.224 18.595 17.224 18.1991 16.9797 17.9548V17.9548C16.7355 17.7106 16.3396 17.7106 16.0953 17.9548V17.9548L14.6592 19.391L14.1622 18.894V18.894C13.918 18.6498 13.522 18.6498 13.2778 18.894V18.894C13.0336 19.1382 13.0336 19.5342 13.2778 19.7784V19.7784L14.217 20.7176V20.7176C14.4612 20.9618 14.8572 20.9618 15.1014 20.7176V20.7176L16.9797 18.8392Z" fill="black"/>
</svg>
