<svg width="34" height="34" viewBox="0 0 34 34" fill="none" xmlns="http://www.w3.org/2000/svg">
<path d="M19.8956 12.3788L21.6213 14.1045L16.1271 19.5987L14.1549 19.8452L14.4014 17.8729L19.8956 12.3788ZM23.6131 14.7697L24.2784 14.1045L25.6911 12.6918L26.0302 12.3527C26.5756 11.8073 26.5756 10.9232 26.0302 10.3778L25.6911 10.0387L23.9614 8.30901L23.6223 7.96984C23.0769 7.42451 22.1928 7.42451 21.6474 7.96984L21.3083 8.30901L19.8956 9.72168L19.2303 10.3869L18.5651 11.0522L12.617 17.0003L12.2296 20.0878L12.2119 20.2303C12.0997 21.1331 12.867 21.9004 13.7698 21.7882L13.9123 21.7705L16.9998 21.3831L22.9479 15.435L23.6131 14.7697ZM22.9479 12.7779L21.2222 11.0522L22.6348 9.6395L24.3606 11.3652L22.9479 12.7779ZM7.92111 9.48689H6.98193V10.4261V26.079V27.0181H7.92111H23.574H24.5132V26.079V19.1917V18.2525H22.6348V19.1917V25.1398H8.86028V11.3652H14.8084H15.7476V9.48689H14.8084H7.92111Z" fill="black"/>
</svg>
