<svg width="34" height="34" viewBox="0 0 34 34" fill="none" xmlns="http://www.w3.org/2000/svg">
<path d="M12.3895 9.16448H27.4163V21.6868H16.3888L16.9523 23.5652H27.4163H29.2946V21.6868V9.16448V7.28613H27.4163H12.3895H10.5112V9.16448V11.0428C11.1764 11.0428 11.8104 11.172 12.3895 11.4068V9.16448ZM24.2857 16.6779L24.9118 16.0518V11.6689H20.529L19.9029 12.2951L21.4291 13.8212L19.2768 15.9735L17.4376 14.1343L16.7723 13.469L15.4457 14.7995L16.111 15.4648L18.6155 17.9692C18.9829 18.3366 19.5785 18.3366 19.946 17.9692L22.7635 15.1517L24.2896 16.6779H24.2857ZM10.5112 14.1734C10.7578 14.1734 11.0021 14.222 11.23 14.3164C11.4579 14.4108 11.6649 14.5491 11.8394 14.7236C12.0138 14.898 12.1521 15.1051 12.2465 15.3329C12.3409 15.5608 12.3895 15.8051 12.3895 16.0518C12.3895 16.2984 12.3409 16.5427 12.2465 16.7706C12.1521 16.9985 12.0138 17.2055 11.8394 17.38C11.6649 17.5544 11.4579 17.6927 11.23 17.7871C11.0021 17.8815 10.7578 17.9301 10.5112 17.9301C10.2645 17.9301 10.0202 17.8815 9.79235 17.7871C9.56446 17.6927 9.35739 17.5544 9.18297 17.38C9.00855 17.2055 8.87019 16.9985 8.77579 16.7706C8.6814 16.5427 8.63281 16.2984 8.63281 16.0518C8.63281 15.8051 8.6814 15.5608 8.77579 15.3329C8.87019 15.1051 9.00855 14.898 9.18297 14.7236C9.35739 14.5491 9.56446 14.4108 9.79235 14.3164C10.0202 14.222 10.2645 14.1734 10.5112 14.1734ZM10.5112 19.8085C11.0045 19.8085 11.493 19.7113 11.9488 19.5225C12.4046 19.3337 12.8187 19.057 13.1675 18.7081C13.5164 18.3593 13.7931 17.9452 13.9819 17.4894C14.1707 17.0336 14.2679 16.5451 14.2679 16.0518C14.2679 15.5584 14.1707 15.0699 13.9819 14.6141C13.7931 14.1583 13.5164 13.7442 13.1675 13.3954C12.8187 13.0465 12.4046 12.7698 11.9488 12.581C11.493 12.3922 11.0045 12.2951 10.5112 12.2951C10.0178 12.2951 9.52932 12.3922 9.07354 12.581C8.61775 12.7698 8.20362 13.0465 7.85478 13.3954C7.50593 13.7442 7.22922 14.1583 7.04043 14.6141C6.85163 15.0699 6.75446 15.5584 6.75446 16.0518C6.75446 16.5451 6.85163 17.0336 7.04043 17.4894C7.22922 17.9452 7.50593 18.3593 7.85478 18.7081C8.20362 19.057 8.61775 19.3337 9.07354 19.5225C9.52932 19.7113 10.0178 19.8085 10.5112 19.8085ZM7.52537 22.939H13.497L14.2483 25.4435H6.77403L7.52537 22.939ZM15.2634 22.292C15.0441 21.5612 14.3714 21.0607 13.6084 21.0607H7.41391C6.65089 21.0607 5.9782 21.5612 5.75894 22.292L4.8135 25.4435L4.25 27.3218H6.21053H14.8118H16.7723L16.2088 25.4435L15.2634 22.292Z" fill="black"/>
</svg>
