<svg width="38" height="38" viewBox="0 0 38 38" fill="none" xmlns="http://www.w3.org/2000/svg">
<path d="M11.3975 9.31836H6.77393V13.942H7.92983V19.3362V27.0423V28.1982H9.08573H12.9387V29.3541H17.5623V24.7304H12.9387V25.8864H10.2416V20.4921H12.9387V21.648H17.5623V17.0244H12.9387V18.1803H10.2416V13.942H11.3975V9.31836ZM15.6358 10.4743C14.9974 10.4743 14.4799 10.9918 14.4799 11.6302V11.6302C14.4799 12.2686 14.9974 12.7861 15.6358 12.7861V12.7861H30.2772V12.7861C30.9156 12.7861 31.4331 12.2686 31.4331 11.6302V11.6302C31.4331 10.9918 30.9156 10.4743 30.2772 10.4743V10.4743H15.6358V10.4743ZM21.8006 18.1803C21.1622 18.1803 20.6447 18.6978 20.6447 19.3362V19.3362C20.6447 19.9746 21.1622 20.4921 21.8006 20.4921V20.4921H30.2772V20.4921C30.9156 20.4921 31.4331 19.9746 31.4331 19.3362V19.3362C31.4331 18.6978 30.9156 18.1803 30.2772 18.1803V18.1803H21.8006V18.1803ZM21.8006 25.8864C21.1622 25.8864 20.6447 26.4039 20.6447 27.0423V27.0423C20.6447 27.6806 21.1622 28.1982 21.8006 28.1982V28.1982H30.2772V28.1982C30.9156 28.1982 31.4331 27.6806 31.4331 27.0423V27.0423C31.4331 26.4039 30.9156 25.8864 30.2772 25.8864V25.8864H21.8006V25.8864Z" fill="black"/>
</svg>
