<svg width="38" height="38" viewBox="0 0 38 38" fill="none" xmlns="http://www.w3.org/2000/svg">
<path d="M29.5898 11.465V27.2074H8.12277V11.465H29.5898ZM8.12277 9.31836H5.97607V11.465V27.2074V29.3541H8.12277H29.5898H31.7365V27.2074V11.465V9.31836H29.5898H8.12277ZM15.2784 19.3362C16.0376 19.3362 16.7656 19.0347 17.3024 18.4979C17.8391 17.9611 18.1407 17.2331 18.1407 16.474C18.1407 15.7149 17.8391 14.9868 17.3024 14.4501C16.7656 13.9133 16.0376 13.6117 15.2784 13.6117C14.5193 13.6117 13.7913 13.9133 13.2545 14.4501C12.7177 14.9868 12.4162 15.7149 12.4162 16.474C12.4162 17.2331 12.7177 17.9611 13.2545 18.4979C13.7913 19.0347 14.5193 19.3362 15.2784 19.3362ZM10.2695 25.0607H20.2874L19.4554 22.5647C19.0976 21.4913 18.0931 20.7673 16.9617 20.7673H13.5952C12.4638 20.7673 11.4593 21.4913 11.1015 22.5647L10.2695 25.0607ZM22.7919 14.3273H21.7185V16.474H22.7919H26.3697H27.4431V14.3273H26.3697H22.7919ZM22.7919 18.6207H21.7185V20.7673H22.7919H26.3697H27.4431V18.6207H26.3697H22.7919Z" fill="black"/>
</svg>
