<svg width="38" height="38" viewBox="0 0 38 38" fill="none" xmlns="http://www.w3.org/2000/svg">
<path d="M11.1968 10.5912H24.9712V12.4696H26.8496V10.5912V8.71289H24.9712H11.1968H9.31842V10.5912V21.2352H6.81396V22.4874L8.06619 23.7397H20.5885V21.2352H11.1968V10.5912ZM23.719 13.7218C22.6816 13.7218 21.8407 14.5628 21.8407 15.6002V15.6002V26.8703V26.8703C21.8407 27.9076 22.6816 28.7486 23.719 28.7486V28.7486H29.9802V28.7486C31.0175 28.7486 31.8585 27.9076 31.8585 26.8703V26.8703V15.6002V15.6002C31.8585 14.5628 31.0175 13.7218 29.9802 13.7218V13.7218H23.719V13.7218ZM23.719 15.6002H29.9802V26.8703H23.719V15.6002Z" fill="black"/>
</svg>
