<svg fill="none" height="34" viewBox="0 0 34 34" width="34" xmlns="http://www.w3.org/2000/svg"><path d="m22.4075 13.5463h-2.2307c-1.1886 0-2.1521-.9635-2.1521-2.1522v-2.2306h-6.8873v16.279h11.2701zm-11.2701-6.26114h8.1395l5.0089 5.00894v13.1484 1.8784h-1.8783-11.2701-1.87837v-1.8784-16.279-1.87834zm6.4177 8.71474v.7827.133c.2582.043.6378.1096.8061.1487l.7631.18-.36 1.5223-.7631-.18c-.1526-.0353-.6848-.1292-.857-.1527-.2466-.0352-1.3736-.1252-1.4557.3131-.0079.043-.0079.0665-.0079.0743.2074.2896.6262.3679 1.0018.4383.1213.0235.2348.0431.3366.0705.4735.1252 1.0996.2935 1.5692.5987.2582.1683.5165.403.6809.7396.1682.3483.2035.7318.1291 1.1231-.1409.7278-.6731 1.1818-1.264 1.4087-.18.0705-.3756.1214-.5752.1527v.1056.7827h-1.5692v-.7827-.1369c-.3639-.0744-.8374-.2192-1.1427-.3131-.0665-.0196-.1291-.0391-.1761-.0548l-.7513-.223.4461-1.5027c.1917.0548.3835.1213.5831.1839.4813.1565.9744.317 1.4557.3874.5126.0704.9157.0274 1.17-.0704.2387-.09.274-.1918.2857-.2426.0235-.1253-.0156-.1801-.1252-.2466-.4148-.2661-.904-.3874-1.3931-.5087-.4696-.1135-.9392-.2309-1.3501-.4774-.2544-.1526-.5205-.3757-.6965-.7044-.184-.3404-.2231-.7239-.1487-1.1074.1369-.7044.6848-1.1466 1.2444-1.3736.1878-.0743.3874-.133.5948-.1722v-.1252-.7826h1.5653zm-4.5394-4.958h3.1306.6261v1.2522h-.6261-3.1306-.6261v-1.2522zm0 2.5044h3.1306.6261v1.2522h-.6261-3.1306-.6261v-1.2522z" fill="#000"/></svg>