<svg fill="none" height="34" viewBox="0 0 34 34" width="34" xmlns="http://www.w3.org/2000/svg"><path d="m11.0613 9.1635v6.5586l-1.87837-1.2757v-5.2829-1.87834h1.87837 11.2701 1.8783v1.87834 5.2829l-1.8783 1.2757v-6.5586h-5.6351zm6.6916 13.4498c-.638.4324-1.4751.4324-2.1131 0l-7.08299-4.8055v7.6347h16.27899v-7.6347zm7.0829-7.0752c.7982-.542 1.8784.0292 1.8784.994v8.9104 1.8784h-1.8784-16.27899-1.87834v-1.8784-8.9104c0-.9648 1.08018-1.536 1.87834-.994l8.13949 5.5216zm-7.3568-4.4962v.2465c.2582.0469.6535.1252.8257.1722l.7552.1995-.4031 1.5145-.7552-.1996c-.1487-.0391-.6809-.1448-.8492-.1683-.4774-.0743-.8687-.0117-1.1192.1018-.2465.1134-.3091.2426-.3208.3169-.0235.1331 0 .184.0039.1957.0117.0196.0391.0704.1408.137.2388.1643.6144.2817 1.1701.4461l.0313.0078c.4735.1448 1.1075.3326 1.581.6809.2621.1917.5087.4461.6613.8022.1565.3561.1878.7474.1174 1.1505-.1292.7435-.6222 1.2522-1.2366 1.5144-.1917.0822-.3952.1409-.6026.18v.2152.7827h-1.5653v-.7827-.2504c-.3718-.0861-.8609-.2504-1.1701-.3561-.0665-.0235-.1252-.0431-.1722-.0587l-.7435-.2465.4931-1.4871.7435.2466c.0783.0274.1644.0548.2505.0821.3717.1253.7904.2701 1.0252.3092.5009.0783.8883.0274 1.127-.0744.2153-.09.2896-.2074.3131-.3443.0274-.1566.0039-.2309-.0078-.2622-.0157-.0352-.0509-.0861-.1448-.1565-.2309-.1683-.5988-.2935-1.1466-.4579l-.0861-.0274c-.4578-.1369-1.0566-.3169-1.5105-.6261-.2583-.1761-.5165-.4187-.677-.7631-.1643-.3522-.2035-.7357-.133-1.1348.1252-.7161.6339-1.2092 1.217-1.4753.1956-.09.407-.1565.6261-.1996v-.2308-.7827h1.5653v.7827z" fill="#000"/></svg>