<svg width="145" height="40" viewBox="0 0 145 40" fill="none" xmlns="http://www.w3.org/2000/svg">
<path fill-rule="evenodd" clip-rule="evenodd" d="M9.19049 0H30.7637C35.8395 0 39.9542 4.11944 39.9542 9.20102V30.799C39.9542 35.8806 35.8395 40 30.7637 40H9.19049C4.11472 40 0 35.8806 0 30.799V9.20102C0 4.11944 4.11472 0 9.19049 0ZM26.5905 6.38979V9.66345V9.66447C26.5905 9.99798 26.8603 10.2691 27.1944 10.2691H30.3713C30.9272 10.2691 31.3778 10.7202 31.3778 11.2767V28.7161C31.3778 29.2727 30.9272 29.7238 30.3713 29.7238H27.1944C26.8613 29.7238 26.5905 29.9939 26.5905 30.3284V33.6082C26.5905 34.1647 26.1399 34.6159 25.584 34.6159H14.3641C13.8082 34.6159 13.3576 34.1647 13.3576 33.6082V30.3284C13.3576 29.9949 13.0878 29.7238 12.7537 29.7238H9.58288C9.027 29.7238 8.57636 29.2727 8.57636 28.7161V24.7294C8.57636 24.1729 9.027 23.7218 9.58288 23.7218H13.5599C14.1158 23.7218 14.5664 24.1729 14.5664 24.7294V28.0092C14.5664 28.3427 14.8372 28.6128 15.1703 28.6128H24.7788C25.1119 28.6128 25.3827 28.3417 25.3827 28.0082L25.3878 11.9867C25.3878 11.6522 25.118 11.3821 24.7839 11.3821H16.3271C15.7712 11.3821 15.3205 10.931 15.3205 10.3744V6.38979C15.3205 5.83327 15.7712 5.38212 16.3271 5.38212H25.584C26.1399 5.38212 26.5905 5.83327 26.5905 6.38979Z" fill="#11150A"/>
<path d="M59.4572 8.37548V23.6952C59.4572 26.308 58.465 27.3259 55.9195 27.3259H51.6809L51.2344 31.4476H55.9185C60.8203 31.4476 63.6324 28.6548 63.6324 23.7842V8.37548H59.4561H59.4572Z" fill="#11150A"/>
<path d="M97.3983 17.6931V13.7197H92.098V9.95503H88.4214L88.0055 13.7197H84.6344V17.6942H87.9799V24.9412C87.9799 29.0763 90.2413 31.4486 94.1836 31.4486H97.3973V27.3862H94.2428C92.8511 27.3862 92.0969 26.9873 92.0969 24.8819V17.6942H97.3973L97.3983 17.6931Z" fill="#11150A"/>
<path d="M119.817 8.61085V17.7014H110.078V8.61085H105.767V31.3771H110.078V21.8252H119.817V31.3771H124.127V8.61085H119.817Z" fill="#11150A"/>
<path d="M139.313 23.3106C142.158 22.1669 143.853 19.5418 143.853 16.2753C143.853 14.0022 143.07 12.0697 141.588 10.6866C140.133 9.32901 138.116 8.61085 135.754 8.61085H126.781V31.3771H131.093V23.6103L134.296 23.6155L139.716 31.3812H144.994L139.314 23.3116L139.313 23.3106ZM131.092 12.6374H135.576C138.143 12.6374 139.616 13.8804 139.616 16.0492C139.616 18.218 138.143 19.4886 135.576 19.4886H131.092V12.6385V12.6374Z" fill="#11150A"/>
<path d="M81.3145 15.4845C79.6887 13.82 77.4785 12.9403 74.9208 12.9403C69.5949 12.9403 65.8744 16.7377 65.8744 22.175C65.8744 27.6124 69.5827 31.4395 74.8912 31.4395C78.7752 31.4395 82.038 29.3341 83.4062 25.9449L83.5176 25.6697L79.0715 25.3126C78.2152 26.6477 76.7162 27.4067 74.8912 27.4067C72.6073 27.4067 70.8896 26.1709 70.2602 24.0881H83.911L83.9376 22.9147C84.006 19.9264 83.0741 17.2881 81.3145 15.4855V15.4845ZM70.0854 20.2937C70.3429 19.417 70.7884 18.6825 71.4118 18.1096C72.3049 17.2871 73.5188 16.8523 74.9208 16.8523C77.3119 16.8523 79.0685 18.1055 79.7521 20.2937H70.0854Z" fill="#11150A"/>
</svg>
