<svg width="40" height="40" viewBox="0 0 40 40" fill="none" xmlns="http://www.w3.org/2000/svg">
<path d="M20 17C21.75 17 23.375 16.0625 24.3125 14.5C25.1875 13 25.1875 11.0625 24.3125 9.5C23.375 8 21.75 7 20 7C18.1875 7 16.5625 8 15.625 9.5C14.75 11.0625 14.75 13 15.625 14.5C16.5625 16.0625 18.1875 17 20 17ZM28 12C28 14.875 26.4375 17.5 24 18.9375C21.5 20.375 18.4375 20.375 16 18.9375C13.5 17.5 12 14.875 12 12C12 9.1875 13.5 6.5625 16 5.125C18.4375 3.6875 21.5 3.6875 24 5.125C26.4375 6.5625 28 9.1875 28 12ZM19.0625 26.5L17.875 24.5625C17.5 23.875 17.9375 23 18.75 23H20H21.1875C22 23 22.4375 23.875 22.0625 24.5625L20.875 26.5L21.875 30.1875L24.625 24.6875C24.8125 24.3125 25.1875 24.125 25.625 24.1875C30.375 25 34 29.125 34 34.125C34 35.1875 33.125 36 32.0625 36H7.875C6.8125 36 6 35.1875 6 34.125C6 29.125 9.5625 25 14.3125 24.1875C14.75 24.125 15.125 24.3125 15.3125 24.6875L18.0625 30.1875L19.0625 26.5ZM13.375 27.5625C11.125 28.5 9.4375 30.5625 9.0625 33H16.125L13.375 27.5625ZM23.8125 33H30.875C30.5 30.5625 28.8125 28.5 26.5625 27.5625L23.8125 33Z" fill="#3F4340"/>
</svg>
