<svg width="40" height="40" viewBox="0 0 40 40" fill="none" xmlns="http://www.w3.org/2000/svg">
<path d="M20 4C21.0625 4 22 4.9375 22 6V7.125C26.5 7.875 30 11.8125 30 16.5V18.625C30 21.4375 30.9375 24.1875 32.6875 26.4375L33.625 27.5625C34 28.0625 34.0625 28.6875 33.8125 29.1875C33.5625 29.6875 33.0625 30 32.5 30H7.5C6.875 30 6.375 29.6875 6.125 29.1875C5.875 28.6875 5.9375 28.0625 6.3125 27.5625L7.25 26.4375C9 24.1875 10 21.4375 10 18.625V16.5C10 11.8125 13.4375 7.875 18 7.125V6C18 4.9375 18.875 4 20 4ZM20 10H19.5C15.875 10 13 12.9375 13 16.5V18.625C13 21.625 12.125 24.5 10.5 27H29.4375C27.8125 24.5 27 21.625 27 18.625V16.5C27 12.9375 24.0625 10 20.5 10H20ZM24 32C24 33.0625 23.5625 34.125 22.8125 34.875C22.0625 35.625 21.0625 36 20 36C18.9375 36 17.875 35.625 17.125 34.875C16.375 34.125 16 33.0625 16 32H20H24ZM0 16.5C0 15.6875 0.625 15 1.5 15H6.5C7.3125 15 8 15.6875 8 16.5C8 17.375 7.3125 18 6.5 18H1.5C0.625 18 0 17.375 0 16.5ZM33.5 15H38.5C39.3125 15 40 15.6875 40 16.5C40 17.375 39.3125 18 38.5 18H33.5C32.625 18 32 17.375 32 16.5C32 15.6875 32.625 15 33.5 15ZM37.3125 5.375C37.6875 6.125 37.375 7 36.625 7.375L32.625 9.375C31.875 9.75 31 9.4375 30.625 8.6875C30.25 7.9375 30.5625 7.0625 31.3125 6.6875L35.3125 4.6875C36.0625 4.3125 36.9375 4.625 37.3125 5.375ZM3.3125 7.375C2.5625 7 2.25 6.125 2.625 5.375C3 4.625 3.875 4.3125 4.625 4.6875L8.625 6.6875C9.375 7.0625 9.6875 7.9375 9.3125 8.6875C8.9375 9.4375 8.0625 9.75 7.3125 9.375L3.3125 7.375Z" fill="#3F4340"/>
</svg>
