<svg xmlns="http://www.w3.org/2000/svg" width="204.31" height="48" viewBox="0 0 204.31 48">
  <g id="_645ccce4b7db250a5469a19a_Jet-HR-Logo-White" data-name="645ccce4b7db250a5469a19a_Jet-HR-Logo-White" transform="translate(-5333.69 -5595)">
    <path id="Subtraction_8" data-name="Subtraction 8" d="M23.963,48a23.909,23.909,0,0,1-11.939-3.172H35.9A23.909,23.909,0,0,1,23.959,48Zm-9.336-6.3-2.662-2.047h-6.2c-.313-.363-.619-.741-.909-1.121h38.22a24.2,24.2,0,0,1-2.889,3.162ZM45.1,35.4H14.844L12.289,33.36H1.845c-.183-.432-.357-.875-.514-1.318H46.592A23.951,23.951,0,0,1,45.1,35.4Zm2.374-6.491H14.643l-2.6-2.038H.12c-.05-.441-.092-.886-.12-1.323H47.925a24.08,24.08,0,0,1-.453,3.359Zm.451-6.491H14.643l-2.6-2.045H.223c.067-.441.147-.886.237-1.318H47.465a24.065,24.065,0,0,1,.458,3.359Zm-1.341-6.491H14.607l-2.553-2.045H2.187c.176-.378.365-.756.558-1.121H45.185a23.933,23.933,0,0,1,1.4,3.159ZM43.2,9.631H13.891L11.93,7.593H6.441c.42-.456.878-.9,1.337-1.318H40.149a24.2,24.2,0,0,1,3.046,3.359ZM35.852,3.14H12.086a24.012,24.012,0,0,1,23.751,0Z" transform="translate(5333.69 5595.002)" fill="#fff"/>
    <text id="SignifiDigital" transform="translate(5396 5629)" fill="#fff" font-size="25" font-family="HelveticaNeue-Medium, Helvetica Neue" font-weight="500" letter-spacing="-0.01em"><tspan x="0" y="0">SignifiDigital</tspan></text>
  </g>
</svg>
