<svg width="36" height="31" viewBox="0 0 36 31" fill="none" xmlns="http://www.w3.org/2000/svg">
<path d="M7.92422 22.6134L7.16484 24.6132L6.67266 25.8933L10.7227 24.6962L11.7 24.4056L12.6773 24.6962C14.3156 25.1875 16.1086 25.4574 18 25.4574C26.768 25.4574 32.625 19.8871 32.625 14.3859C32.625 8.88482 26.768 3.31451 18 3.31451C9.23203 3.31451 3.375 8.89174 3.375 14.3929C3.375 16.8217 4.42969 19.1605 6.39141 21.098L7.92422 22.6134ZM5.18203 29.8029L1.125 31L2.61563 27.0904L4.00781 23.4437C1.49766 20.9734 0 17.825 0 14.3929C0 6.44219 8.05781 0 18 0C27.9422 0 36 6.44219 36 14.3929C36 22.3435 27.9422 28.7857 18 28.7857C15.7852 28.7857 13.6617 28.4674 11.7 27.8792L5.18906 29.8029H5.18203Z" fill="black"/>
</svg>
