<svg width="36" height="36" viewBox="0 0 36 36" fill="none" xmlns="http://www.w3.org/2000/svg">
<path d="M3.375 18C3.375 9.92109 9.92109 3.375 18 3.375C26.0789 3.375 32.625 9.92109 32.625 18V30.9445L22.5 30.9375V29.25H16.875C15.0117 29.25 13.5 30.7617 13.5 32.625C13.5 34.4883 15.0117 36 16.875 36H22.5V34.3125L34.3125 34.3195H36V32.632V18C36 8.05781 27.9422 0 18 0C8.05781 0 0 8.05781 0 18V20.8125V22.5H3.375V20.8125V18ZM8.30391 12.375L7.81172 12.8672L6.11719 14.5547L5.625 15.0469V15.75V19.6875V25.3125V27H7.3125H12.9375H14.625V25.3125V14.0625V12.375H12.9375H9H8.30391ZM9 16.4461L9.69609 15.75H11.25V23.625H9V19.6875V16.4461ZM27 12.375H23.0625H21.375V14.0625V25.3125V27H23.0625H28.6875H30.375V25.3125V19.6875V15.75V15.0539L29.8828 14.5617L28.1953 12.8742L27.7031 12.382H27V12.375ZM26.3039 15.75L27 16.4461V19.6875V23.625H24.75V15.75H26.3039Z" fill="black"/>
</svg>
