<svg width="25" height="25" viewBox="0 0 25 25" fill="none" xmlns="http://www.w3.org/2000/svg">
<path d="M17.25 9.75C17.25 7.07812 15.7969 4.64062 13.5 3.28125C11.1562 1.92188 8.29688 1.92188 6 3.28125C3.65625 4.64062 2.25 7.07812 2.25 9.75C2.25 12.4688 3.65625 14.9062 6 16.2656C8.29688 17.625 11.1562 17.625 13.5 16.2656C15.7969 14.9062 17.25 12.4688 17.25 9.75ZM15.7969 17.4375C14.1094 18.75 12 19.5 9.75 19.5C4.35938 19.5 0 15.1406 0 9.75C0 4.40625 4.35938 0 9.75 0C15.0938 0 19.5 4.40625 19.5 9.75C19.5 12.0469 18.7031 14.1562 17.3906 15.8438L23.6719 22.0781C24.0938 22.5469 24.0938 23.25 23.6719 23.6719C23.2031 24.1406 22.5 24.1406 22.0781 23.6719L15.7969 17.4375Z" fill="#11150A"/>
</svg>
