<svg width="30" height="24" viewBox="0 0 30 24" fill="none" xmlns="http://www.w3.org/2000/svg">
<path d="M13.5 3C13.5 3.79688 13.1719 4.54688 12.6562 5.0625L13.9219 7.78125C14.4844 7.59375 15.0938 7.5 15.75 7.5C17.5781 7.5 19.2188 8.25 20.4375 9.42188L24.0469 6.75C24 6.51562 24 6.28125 24 6C24 4.35938 25.3125 3 27 3C28.6406 3 30 4.35938 30 6C30 7.6875 28.6406 9 27 9C26.3906 9 25.875 8.85938 25.4062 8.57812L21.75 11.25C22.2188 12.1406 22.5 13.1719 22.5 14.25C22.5 15.1406 22.3125 15.9844 22.0312 16.7344L25.1719 18.6094C25.6875 18.2344 26.2969 18 26.9531 18C28.6406 18 29.9531 19.3594 29.9531 21C29.9531 22.6875 28.6406 24 26.9531 24C25.3125 24 23.9531 22.6875 23.9531 21C23.9531 20.8594 24 20.7188 24 20.5312L20.8594 18.6562C19.6406 20.1094 17.7656 21 15.75 21C12.375 21 9.60938 18.6094 9.09375 15.375H5.76562C5.29688 16.5 4.21875 17.25 3 17.25C1.3125 17.25 0 15.9375 0 14.25C0 12.6094 1.3125 11.25 3 11.25C4.21875 11.25 5.29688 12.0469 5.76562 13.125H9.09375C9.375 11.2969 10.4062 9.75 11.9062 8.71875L10.6406 6C10.5938 6 10.5469 6 10.5 6C8.8125 6 7.5 4.6875 7.5 3C7.5 1.35938 8.8125 0 10.5 0C12.1406 0 13.5 1.35938 13.5 3ZM15.75 18.75C17.3438 18.75 18.7969 17.9062 19.6406 16.5C20.4375 15.1406 20.4375 13.4062 19.6406 12C18.7969 10.6406 17.3438 9.75 15.75 9.75C14.1094 9.75 12.6562 10.6406 11.8125 12C11.0156 13.4062 11.0156 15.1406 11.8125 16.5C12.6562 17.9062 14.1094 18.75 15.75 18.75Z" fill="#11150A"/>
</svg>
