<svg width="21" height="25" viewBox="0 0 21 25" fill="none" xmlns="http://www.w3.org/2000/svg">
<path d="M10.5 10.75C11.8125 10.75 13.0312 10.0469 13.7344 8.875C14.3906 7.75 14.3906 6.29688 13.7344 5.125C13.0312 4 11.8125 3.25 10.5 3.25C9.14062 3.25 7.92188 4 7.21875 5.125C6.5625 6.29688 6.5625 7.75 7.21875 8.875C7.92188 10.0469 9.14062 10.75 10.5 10.75ZM16.5 7C16.5 9.15625 15.3281 11.125 13.5 12.2031C11.625 13.2812 9.32812 13.2812 7.5 12.2031C5.625 11.125 4.5 9.15625 4.5 7C4.5 4.89062 5.625 2.92188 7.5 1.84375C9.32812 0.765625 11.625 0.765625 13.5 1.84375C15.3281 2.92188 16.5 4.89062 16.5 7ZM9.79688 17.875L8.90625 16.4219C8.625 15.9062 8.95312 15.25 9.5625 15.25H10.5H11.3906C12 15.25 12.3281 15.9062 12.0469 16.4219L11.1562 17.875L11.9062 20.6406L13.9688 16.5156C14.1094 16.2344 14.3906 16.0938 14.7188 16.1406C18.2812 16.75 21 19.8438 21 23.5938C21 24.3906 20.3438 25 19.5469 25H1.40625C0.609375 25 0 24.3906 0 23.5938C0 19.8438 2.67188 16.75 6.23438 16.1406C6.5625 16.0938 6.84375 16.2344 6.98438 16.5156L9.04688 20.6406L9.79688 17.875ZM5.53125 18.6719C3.84375 19.375 2.57812 20.9219 2.29688 22.75H7.59375L5.53125 18.6719ZM13.3594 22.75H18.6562C18.375 20.9219 17.1094 19.375 15.4219 18.6719L13.3594 22.75Z" fill="#11150A"/>
</svg>
