<svg width="27" height="24" viewBox="0 0 27 24" fill="none" xmlns="http://www.w3.org/2000/svg">
<path d="M24 15.75C24.375 15.75 24.75 15.4219 24.75 15V7.5C24.75 7.125 24.375 6.75 24 6.75H18.4688C17.0625 6.75 15.75 6.23438 14.7656 5.25L13.5 3.98438C13.3594 3.84375 13.1719 3.75 12.9844 3.75H7.5C7.07812 3.75 6.75 4.125 6.75 4.5V15C6.75 15.4219 7.07812 15.75 7.5 15.75H24ZM7.5 18C5.8125 18 4.5 16.6875 4.5 15V4.5C4.5 2.85938 5.8125 1.5 7.5 1.5H12.9844C13.7812 1.5 14.5312 1.82812 15.0938 2.39062L16.3594 3.65625C16.9219 4.21875 17.6719 4.5 18.4688 4.5H24C25.6406 4.5 27 5.85938 27 7.5V15C27 16.6875 25.6406 18 24 18H7.5ZM2.25 5.625V16.125C2.25 18.4219 4.07812 20.25 6.375 20.25H21.375C21.9844 20.25 22.5 20.7656 22.5 21.375C22.5 22.0312 21.9844 22.5 21.375 22.5H6.375C2.8125 22.5 0 19.6875 0 16.125V5.625C0 5.01562 0.46875 4.5 1.125 4.5C1.73438 4.5 2.25 5.01562 2.25 5.625Z" fill="#11150A"/>
</svg>
