<svg width="50" height="40" viewBox="0 0 50 40" fill="none" xmlns="http://www.w3.org/2000/svg">
<path d="M41.25 6.25H16.25C16.25 9.0625 13.9844 11.25 11.25 11.25V21.25C13.9844 21.25 16.25 23.5156 16.25 26.25H41.25C41.25 23.5156 43.4375 21.25 46.25 21.25V11.25C43.4375 11.25 41.25 9.0625 41.25 6.25ZM12.5 2.5H45C47.7344 2.5 50 4.76562 50 7.5V25C50 27.8125 47.7344 30 45 30H12.5C9.6875 30 7.5 27.8125 7.5 25V7.5C7.5 4.76562 9.6875 2.5 12.5 2.5ZM35 16.25C35 18.5156 33.75 20.5469 31.875 21.7188C29.9219 22.8125 27.5 22.8125 25.625 21.7188C23.6719 20.5469 22.5 18.5156 22.5 16.25C22.5 14.0625 23.6719 12.0312 25.625 10.8594C27.5 9.76562 29.9219 9.76562 31.875 10.8594C33.75 12.0312 35 14.0625 35 16.25ZM3.75 9.375V28.125C3.75 31.25 6.25 33.75 9.375 33.75H40.625C41.6406 33.75 42.5 34.6094 42.5 35.625C42.5 36.7188 41.6406 37.5 40.625 37.5H9.375C4.14062 37.5 0 33.3594 0 28.125V9.375C0 8.35938 0.78125 7.5 1.875 7.5C2.89062 7.5 3.75 8.35938 3.75 9.375Z" fill="#11150A"/>
</svg>
