<svg width="50" height="40" viewBox="0 0 50 40" fill="none" xmlns="http://www.w3.org/2000/svg">
<path d="M31.25 3.75H18.75V11.25H31.25V3.75ZM18.75 0H31.25C33.2812 0 35 1.71875 35 3.75V11.25C35 13.3594 33.2812 15 31.25 15H26.875V18.125H48.125C49.1406 18.125 50 18.9844 50 20C50 21.0938 49.1406 21.875 48.125 21.875H39.375V25H43.75C45.7812 25 47.5 26.7188 47.5 28.75V36.25C47.5 38.3594 45.7812 40 43.75 40H31.25C29.1406 40 27.5 38.3594 27.5 36.25V28.75C27.5 26.7188 29.1406 25 31.25 25H35.625V21.875H14.375V25H18.75C20.7812 25 22.5 26.7188 22.5 28.75V36.25C22.5 38.3594 20.7812 40 18.75 40H6.25C4.14062 40 2.5 38.3594 2.5 36.25V28.75C2.5 26.7188 4.14062 25 6.25 25H10.625V21.875H1.875C0.78125 21.875 0 21.0938 0 20C0 18.9844 0.78125 18.125 1.875 18.125H23.125V15H18.75C16.6406 15 15 13.3594 15 11.25V3.75C15 1.71875 16.6406 0 18.75 0ZM6.25 28.75V36.25H18.75V28.75H6.25ZM43.75 28.75H31.25V36.25H43.75V28.75Z" fill="#11150A"/>
</svg>
