<svg width="36" height="40" viewBox="0 0 36 40" fill="none" xmlns="http://www.w3.org/2000/svg">
<path d="M24.25 11.25V10C24.25 9.14062 24.0156 8.28125 23.7031 7.5H23.625C21.9844 7.5 20.5781 6.79688 19.6406 5.625C18.5469 7.5 16.5156 8.75 14.25 8.75H11.8281C11.75 9.21875 11.75 9.60938 11.75 10V11.25C11.75 14.7656 14.4844 17.5 18 17.5C21.4375 17.5 24.25 14.7656 24.25 11.25ZM18 0C23.4688 0 28 4.53125 28 10V11.25C28 16.7969 23.4688 21.25 18 21.25C12.4531 21.25 8 16.7969 8 11.25V10C8 4.53125 12.4531 0 18 0ZM20.3438 32.7344L23.7812 25.8594C24.0156 25.3906 24.5625 25.1562 25.0312 25.2344C30.9688 26.25 35.5 31.4062 35.5 37.6562C35.5 38.9844 34.4062 40 33.0781 40H2.84375C1.51562 40 0.5 38.9844 0.5 37.6562C0.5 31.4062 4.95312 26.25 10.8906 25.2344C11.4375 25.1562 11.9062 25.3906 12.1406 25.8594L15.5781 32.7344L16.8281 28.125L15.3438 25.7031C14.875 24.8438 15.4219 23.75 16.4375 23.75H18H19.4844C20.5 23.75 21.0469 24.8438 20.5781 25.7031L19.0938 28.125L20.3438 32.7344ZM9.71875 29.4531C6.90625 30.625 4.79688 33.2031 4.32812 36.25H13.1562L9.71875 29.4531ZM22.7656 36.25H31.5938C31.125 33.2031 29.0156 30.625 26.2031 29.4531L22.7656 36.25Z" fill="#11150A"/>
</svg>
