<?xml version="1.0" encoding="utf-8"?>
<!-- Generator: Adobe Illustrator 27.6.1, SVG Export Plug-In . SVG Version: 6.00 Build 0)  -->
<svg version="1.1" id="Layer_1" xmlns="http://www.w3.org/2000/svg" xmlns:xlink="http://www.w3.org/1999/xlink" x="0px" y="0px"
	 viewBox="0 0 1374.5 822.1" style="enable-background:new 0 0 1374.5 822.1;" xml:space="preserve">
<style type="text/css">
	.st0{font-family:'WixMadeforDisplay-ExtraBold';}
	.st1{font-size:100px;}
</style>
<g>
	<text transform="matrix(1 0 0 1 625.032 391.762)"><tspan x="0" y="0" class="st0 st1">Consulente </tspan><tspan x="0" y="110" class="st0 st1">del lavoro</tspan></text>
	<g>
		<g>
			<path d="M537.7,254.6c-22.2-4.6-38.2-9.5-56.9-12.7c-2.1-0.3-4.3-0.2-6.3,0.4c-2.1,0.6-4,1.6-5.6,3c-1.6,1.4-2.9,3.1-3.8,5.1
				c-0.9,2-1.3,4.1-1.3,6.2l0,57c0,0.9-0.1,1.8-0.5,2.7c-1.2,3-4,4.8-6.9,4.8c-3,0-5.8-1.8-6.9-4.8c-0.3-0.9-0.5-1.8-0.5-2.7l0-37.2
				c0-3.9-3.2-7.1-7.1-7.1l0,0c-2.2,0-4.5,0.4-6.5,1.4c-5.4,2.5-8.6,7.8-8.6,13.4v60.4c0,7.4,3.5,14.4,9.5,18.9l27.5,20.6
				c2.2,1.8,4,4,5.3,6.6c1.3,2.6,2,5.3,2.1,8.2v18c0,4.3,3.5,7.9,7.9,7.9h50.8c4.3,0,7.9-3.5,7.9-7.9v-36.5l9.5-14.3
				c3.4-5.2,5.3-11.2,5.3-17.4v-71.8C552.5,266,551.8,259.4,537.7,254.6z"/>
			<path d="M354.1,276.1l-10.3-6.9c-5.2-3.4-11.2-5.3-17.4-5.3h-71.8c-10.6,0-17.5,0.7-22.2,14.8c-4.6,22.3-9.3,38.2-12.6,56.9
				c-0.3,2.1-0.2,4.3,0.4,6.3c0.6,2.1,1.6,4,3,5.6c1.4,1.6,3.1,2.9,5.1,3.8c2,0.9,4.1,1.3,6.2,1.3l56.9,0c0.9,0,1.8,0.1,2.7,0.5
				c3,1.2,4.8,4,4.8,6.9c0,3-1.8,5.8-4.8,6.9c-0.9,0.3-1.8,0.5-2.7,0.5l-37,0c-4,0-7.3,3.3-7.3,7.3v0c0,2.2,0.4,4.5,1.4,6.5
				c2.5,5.4,7.8,8.6,13.4,8.6h60.3c7.4,0,14.5-3.5,18.9-9.5l20.6-27.6c1.8-2.2,4-4,6.6-5.3c2.6-1.3,5.3-2,8.2-2.1h18.2
				c4.3,0,7.9-3.5,7.9-7.9v-50.8c0-4.3-3.5-7.9-7.9-7.9h-31.9C359.7,278.8,356.7,277.8,354.1,276.1z"/>
			<path d="M330.5,454.8c-2.2-1.8-4.1-4-5.4-6.6c-1.3-2.6-2-5.4-2-8.2v-18c0-4.3-3.5-7.9-7.9-7.9h-50.8c-4.3,0-7.9,3.5-7.9,7.9v31.7
				c0,3.1-0.9,6.1-2.6,8.7l-6.9,10.3c-3.4,5.2-5.3,11.2-5.3,17.4V562c0,10.8,0.7,17.5,14.8,22.2c22.2,4.6,38.2,9.5,56.9,12.3
				c2.1,0.3,4.3,0.2,6.3-0.4c2.1-0.6,4-1.6,5.6-3c1.6-1.4,2.9-3.1,3.8-5.1c0.9-2,1.3-4.1,1.3-6.2l0-56.6c0-0.9,0.1-1.8,0.5-2.7
				c1.2-3,4-4.8,6.9-4.8c3,0,5.8,1.8,6.9,4.8c0.3,0.9,0.5,1.8,0.5,2.7l0,37c0,4,3.3,7.3,7.3,7.3l0,0c2.2,0,4.5-0.4,6.5-1.4
				c5.4-2.5,8.6-7.8,8.6-13.4v-60.3c0-7.4-3.5-14.5-9.5-18.9L330.5,454.8z"/>
			<path d="M559.9,485.8l-56.8,0c-0.9,0-1.9-0.1-2.7-0.5c-3-1.2-4.8-3.9-4.8-6.9c0-3,1.8-5.8,4.8-6.9c0.9-0.3,1.8-0.5,2.7-0.5
				l37.3,0c3.9,0,7-3.1,7-7l0,0c0-1.9-0.3-3.9-1-5.7c-2.4-5.8-7.9-9.3-13.8-9.3h-60.4c-7.4,0-14.4,3.5-18.9,9.5L432.7,486
				c-1.8,2.2-4,4-6.6,5.3c-2.6,1.3-5.3,2-8.2,2.1h-18.2c-4.3,0-7.9,3.5-7.9,7.9v50.8c0,4.3,3.5,7.9,7.9,7.9h36.5l14.3,9.5
				c5.2,3.4,11.2,5.3,17.4,5.3h71.8c10.6,0,17.5,0,22.2-14.8c4.6-22.2,9.3-38.2,12.3-56.9c0.3-2.1,0.2-4.2-0.3-6.3
				c-0.6-2-1.6-3.9-2.9-5.6c-1.4-1.6-3.1-2.9-5-3.9C564.1,486.3,562,485.9,559.9,485.8z"/>
		</g>
	</g>
</g>
</svg>
