<svg width="40" height="40" viewBox="0 0 40 40" fill="none" xmlns="http://www.w3.org/2000/svg">
<g clip-path="url(#clip0_1507_29716)">
<path d="M20 0H18.125V1.875V8.125V10H21.875V8.125V3.85938C29.9688 4.78906 36.25 11.6562 36.25 20C36.25 28.9766 28.9766 36.25 20 36.25C11.0234 36.25 3.75 28.9766 3.75 20C3.75 16.6172 4.78125 13.4766 6.54688 10.875L7.60156 9.32812L4.5 7.21875L3.45312 8.76562C1.27344 11.9688 0 15.8359 0 20C0 31.0469 8.95312 40 20 40C31.0469 40 40 31.0469 40 20C40 8.95312 31.0469 0 20 0ZM15.0781 12.4219L13.75 11.0938L11.1016 13.75L12.4297 15.0781L18.6797 21.3281L20.0078 22.6562L22.6484 20L21.3203 18.6719L15.0703 12.4219H15.0781Z" fill="#11150A"/>
</g>
<defs>
<clipPath id="clip0_1507_29716">
<rect width="40" height="40" fill="white"/>
</clipPath>
</defs>
</svg>
