<svg width="40" height="40" viewBox="0 0 40 40" fill="none" xmlns="http://www.w3.org/2000/svg">
<path d="M7.96094 30.2891L8.80469 28.0312L7.10156 26.3203C4.92188 24.1328 3.75 21.4922 3.75 18.75C3.75 12.5391 10.2578 6.25 20 6.25C29.7422 6.25 36.25 12.5391 36.25 18.75C36.25 24.9609 29.7422 31.25 20 31.25C17.9062 31.25 15.9141 30.9453 14.0859 30.3906L13 30.0625L11.9141 30.3906L7.41406 31.7344L7.96094 30.2891ZM1.25 37.5L5.76562 36.1484L13 33.9766C15.1797 34.6406 17.5391 35 20 35C31.0469 35 40 27.7266 40 18.75C40 9.77344 31.0469 2.5 20 2.5C8.95312 2.5 0 9.77344 0 18.75C0 22.625 1.66406 26.1797 4.44531 28.9688L2.90625 33.0859L1.25 37.5ZM28.8281 15.0781L30.1562 13.75L27.5 11.1016L26.1719 12.4297L17.5 21.1016L13.8281 17.4297L12.5 16.1016L9.85156 18.75L11.1797 20.0781L16.1797 25.0781L17.5078 26.4062L18.8359 25.0781L28.8281 15.0781Z" fill="#11150A"/>
</svg>
