<svg width="50" height="40" viewBox="0 0 50 40" fill="none" xmlns="http://www.w3.org/2000/svg">
<g clip-path="url(#clip0_1507_29723)">
<path d="M13.75 2.60938L13.0703 2.36719L12.4062 2.64844L4.90625 5.77344L1.5625 7.15625L4.625 9.08594L15 15.6172L11.7969 17.2969L8.24219 15.7734L7.3125 15.375L6.46094 15.9375L2.71094 18.4375L0.882812 19.6562L2.375 21.2734L9.875 29.3984L10.4297 30H11.25H20H20.4609L20.8672 29.7813L40.9766 19.2266C44.5156 17.3672 47.3437 14.4062 49.0312 10.7891C50.5625 7.50781 48.1719 3.75 44.5469 3.75H40.5859C38.6641 3.75 36.7734 4.21875 35.0781 5.10938L29.3047 8.125L13.75 2.60938ZM9.67969 7.84375L13.1719 6.39063L28.8281 11.9375L29.6016 12.2109L30.3281 11.8281L36.8203 8.42969C37.9844 7.82031 39.2734 7.5 40.5938 7.5H44.5625C45.4375 7.5 46.0156 8.40625 45.6484 9.20312C44.3047 12.0781 42.0547 14.4375 39.25 15.9062L19.5391 26.25H12.0703L6.61719 20.3438L7.69531 19.625L11.1406 21.1016L11.9609 21.4531L12.75 21.0391L19.6328 17.4297L22.5156 15.9141L19.7578 14.1797L9.6875 7.84375H9.67969ZM1.875 36.25H0V40H1.875H48.125H50V36.25H48.125H1.875Z" fill="#11150A"/>
</g>
<defs>
<clipPath id="clip0_1507_29723">
<rect width="50" height="40" fill="white"/>
</clipPath>
</defs>
</svg>
