<svg width="334" height="227" viewBox="0 0 334 227" fill="none" xmlns="http://www.w3.org/2000/svg">
<path d="M12.3806 52.4277C-7.75471 79.9563 -40.35 137.203 -16.2895 152.169C14.3325 171.216 47.9125 108.408 64.45 77.3493C80.9875 46.291 98.8199 11.8938 116.778 21.0681C133.614 29.669 121.862 68.6742 106.828 100.668C91.7946 132.662 61.3933 185.962 90.802 195.941C120.211 205.92 141.101 147.899 161.781 53.2779C169.1 19.7872 172.644 0.663066 189.359 1.95329C204.43 3.11656 202.769 23.3502 196.565 59.8955C184.901 128.609 192.396 193.208 209.299 206.426C249.158 237.598 282.925 229.962 332.538 178.022" stroke="#DFEB57" stroke-width="3"/>
</svg>
