<svg width="359" height="236" viewBox="0 0 359 236" fill="none" xmlns="http://www.w3.org/2000/svg">
<path d="M133.346 232.512C134.157 232.681 134.678 233.475 134.509 234.286C134.34 235.097 133.546 235.618 132.735 235.449L133.346 232.512ZM12.5185 78.1973L11.2396 77.4136L12.5185 78.1973ZM245.012 79.6293L244.256 80.9247L245.012 79.6293ZM207.057 116.988L206.248 118.251L207.057 116.988ZM363.048 -3.79481L363.517 -5.21958L363.048 -3.79481ZM132.735 235.449C88.9098 226.342 48.7694 203.064 24.4321 174.001C0.0768978 144.916 -8.5971 109.787 11.2396 77.4136L13.7975 78.981C-5.1476 109.899 2.90037 143.615 26.7321 172.075C50.5817 200.556 90.0931 223.524 133.346 232.512L132.735 235.449ZM11.2396 77.4136C34.388 39.6354 74.7207 29.1413 118.213 33.4014C161.692 37.6603 208.662 56.6673 245.768 78.334L244.256 80.9247C207.377 59.3906 160.828 40.59 117.921 36.3871C75.0263 32.1856 36.1047 42.5758 13.7975 78.981L11.2396 77.4136ZM245.768 78.334C265.537 89.8769 279.527 102.151 287.763 113.108C291.879 118.585 294.597 123.785 295.848 128.444C297.098 133.102 296.91 137.345 295.013 140.735C293.103 144.149 289.617 146.419 284.862 147.427C280.129 148.431 274.048 148.212 266.692 146.614C251.974 143.417 231.786 134.621 206.248 118.251L207.867 115.725C233.256 132 253.1 140.592 267.329 143.683C274.445 145.228 280.067 145.377 284.24 144.493C288.39 143.613 291.015 141.738 292.395 139.27C293.79 136.778 294.073 133.402 292.951 129.222C291.829 125.045 289.332 120.189 285.365 114.911C277.434 104.359 263.787 92.3292 244.256 80.9247L245.768 78.334ZM206.248 118.251C179.151 100.882 163.391 80.5697 158.157 60.7032C152.907 40.7771 158.306 21.4893 173.132 6.47016C202.678 -23.4605 269.308 -36.2365 363.517 -5.21958L362.579 -2.37003C268.747 -33.2626 203.598 -20.1228 175.267 8.5777C161.154 22.8741 156.09 41.0807 161.058 59.9389C166.042 78.8569 181.179 98.6188 207.867 115.725L206.248 118.251ZM363.517 -5.21958C414.554 11.5838 451.961 33.0155 477.877 53.6141C503.759 74.1853 518.266 93.9958 523.355 107.604L520.545 108.655C515.717 95.746 501.658 76.3477 476.011 55.9627C450.398 35.6052 413.312 14.3333 362.579 -2.37003L363.517 -5.21958Z" fill="#DFEB57"/>
</svg>
