<svg width="874" height="509" viewBox="0 0 874 509" fill="none" xmlns="http://www.w3.org/2000/svg">
<path fill-rule="evenodd" clip-rule="evenodd" d="M530.993 39.7499C518.379 48.6719 502.828 66.9913 478.892 97.4964C434.015 154.689 395.567 190.095 361.044 212.715C326.274 235.497 296.226 244.814 269.159 250.775C162.716 274.218 60.0551 218.138 3.36421 133.08C-1.87124 125.225 0.2525 114.612 8.10772 109.377C15.9629 104.142 26.575 106.265 31.8105 114.121C82.5033 190.179 172.077 237.152 261.806 217.39C286.173 212.024 312.006 203.975 342.309 184.121C372.858 164.105 408.675 131.605 451.998 76.3934C474.971 47.1159 493.714 24.2453 511.252 11.8405C520.465 5.32354 530.632 0.713435 542.016 0.249582C553.527 -0.219471 564.024 3.63875 573.671 9.89256C583.513 16.2738 590.497 25.0977 594.066 36.0572C597.511 46.6397 597.408 58.0622 595.331 69.4884C591.247 91.9546 578.695 118.722 561.152 148.733C518.796 221.188 495.388 277.857 489.951 318.15C487.254 338.137 489.204 352.526 493.957 362.532C498.451 371.995 506.202 379.158 519.027 383.669C530.277 387.627 539.291 385.927 547.967 380.275C557.511 374.057 566.974 362.712 576.157 346.872C592.064 319.434 604.219 283.92 614.839 252.889C616.521 247.974 618.164 243.172 619.778 238.533C621.756 232.846 623.721 227.062 625.692 221.258C634.702 194.731 643.855 167.784 655.094 147.749C662.058 135.335 670.809 123.645 682.541 116.121C695.027 108.113 709.537 105.701 725.368 109.79C742.221 114.144 754.069 124.104 759.771 138.899C764.923 152.268 764.221 167.544 761.86 181.752C759.445 196.291 754.817 212.242 749.893 228.083C748.468 232.669 747.019 237.243 745.571 241.815C741.891 253.429 738.217 265.028 734.949 276.765C725.54 310.552 712.272 358.842 711.707 400.444C711.425 421.216 714.379 438.411 721.053 450.808C727.255 462.328 737.137 470.7 754.163 473.912C765.523 476.055 775.298 472.865 784.783 464.642C794.808 455.95 804.041 441.887 812.058 423.877C828.045 387.967 836.858 341.766 839.82 309.403C840.681 300.002 848.999 293.079 858.4 293.939C867.801 294.799 874.724 303.118 873.864 312.518C870.704 347.035 861.328 397.26 843.289 437.78C834.294 457.985 822.554 477.138 807.177 490.471C791.259 504.272 771.201 511.914 747.826 507.505C720.646 502.378 702.039 487.605 690.952 467.013C680.338 447.298 677.206 423.414 677.525 399.979C678.16 353.261 692.785 300.744 701.961 267.793L702.016 267.594C705.458 255.235 709.415 242.745 713.157 230.93C714.564 226.49 715.94 222.144 717.248 217.937C722.157 202.142 726.142 188.16 728.137 176.149C730.188 163.809 729.695 155.921 727.872 151.192C726.6 147.89 724.289 144.819 716.818 142.889C709.846 141.088 705.173 142.218 700.996 144.897C696.064 148.06 690.671 154.201 684.909 164.474C675.367 181.484 667.519 204.526 658.535 230.905C656.452 237.023 654.307 243.32 652.066 249.763C650.566 254.077 649.001 258.662 647.365 263.453C636.876 294.174 623.488 333.391 605.732 364.018C595.44 381.77 582.71 398.44 566.628 408.917C549.679 419.961 529.635 423.639 507.683 415.918C487.304 408.749 471.93 395.836 463.078 377.199C454.483 359.104 452.863 337.368 456.073 313.578C462.45 266.316 488.766 204.821 531.639 131.48C548.839 102.057 558.743 79.6203 561.696 63.3748C563.138 55.4451 562.697 50.1349 561.56 46.6409C560.545 43.5238 558.699 40.9273 555.074 38.5771C549.55 34.9959 545.96 34.3026 543.408 34.4067C540.728 34.5159 536.855 35.6034 530.993 39.7499Z" fill="#F1F4F1"/>
</svg>
