<svg xmlns="http://www.w3.org/2000/svg" width="18.003" height="18" viewBox="0 0 18.003 18">
  <g id="instagram" transform="translate(-11.2 -10.3)">
    <g id="Group_29" data-name="Group 29" transform="translate(11.2 10.3)">
      <path id="Path_105" data-name="Path 105" d="M14.307,10.772A4.617,4.617,0,0,0,11.672,13.4a6.582,6.582,0,0,0-.417,2.185c-.044.959-.055,1.266-.055,3.71s.011,2.752.055,3.71a6.677,6.677,0,0,0,.417,2.185,4.609,4.609,0,0,0,2.635,2.635,6.582,6.582,0,0,0,2.185.417c.959.044,1.266.055,3.71.055s2.752-.011,3.71-.055a6.677,6.677,0,0,0,2.185-.417,4.609,4.609,0,0,0,2.635-2.635,6.582,6.582,0,0,0,.417-2.185c.044-.959.055-1.266.055-3.71s-.011-2.752-.055-3.71a6.677,6.677,0,0,0-.417-2.185A4.6,4.6,0,0,0,26.1,10.772a6.582,6.582,0,0,0-2.185-.417c-.959-.044-1.266-.055-3.71-.055s-2.752.011-3.71.055A6.5,6.5,0,0,0,14.307,10.772Zm9.532,1.2a4.958,4.958,0,0,1,1.672.311,2.978,2.978,0,0,1,1.709,1.709,4.958,4.958,0,0,1,.311,1.672c.044.948.051,1.233.051,3.637s-.011,2.69-.051,3.637a4.958,4.958,0,0,1-.311,1.672,2.978,2.978,0,0,1-1.709,1.709,4.958,4.958,0,0,1-1.672.311c-.948.044-1.233.051-3.637.051s-2.69-.011-3.637-.051a4.958,4.958,0,0,1-1.672-.311,2.978,2.978,0,0,1-1.709-1.709,4.959,4.959,0,0,1-.311-1.672c-.044-.948-.051-1.233-.051-3.637s.011-2.69.051-3.637a4.958,4.958,0,0,1,.311-1.672,2.978,2.978,0,0,1,1.709-1.709,4.958,4.958,0,0,1,1.672-.311c.948-.044,1.233-.051,3.637-.051S22.891,11.928,23.839,11.972Z" transform="translate(-11.2 -10.3)" fill="#fff"/>
      <path id="Path_106" data-name="Path 106" d="M130.9,134.622A4.622,4.622,0,1,0,135.522,130,4.622,4.622,0,0,0,130.9,134.622Zm7.622,0a3,3,0,1,1-3-3A3,3,0,0,1,138.522,134.622Z" transform="translate(-126.52 -125.62)" fill="#fff"/>
      <circle id="Ellipse_1" data-name="Ellipse 1" cx="1.079" cy="1.079" r="1.079" transform="translate(12.73 3.118)" fill="#fff"/>
    </g>
  </g>
</svg>
