<svg xmlns="http://www.w3.org/2000/svg" width="161.135" height="40" viewBox="0 0 161.135 40">
  <g id="logo" transform="translate(8898.938 -5458.776)">
    <path id="Subtraction_8" data-name="Subtraction 8" d="M19.969,40a19.924,19.924,0,0,1-9.949-2.643H29.915A19.924,19.924,0,0,1,19.966,40ZM12.19,34.75,9.972,33.044H4.8c-.261-.3-.516-.618-.757-.934H35.894a20.169,20.169,0,0,1-2.407,2.635ZM37.584,29.5H12.37l-2.129-1.7h-8.7c-.152-.36-.3-.729-.429-1.1H38.826a19.958,19.958,0,0,1-1.246,2.8Zm1.979-5.409H12.2l-2.166-1.7H.1c-.042-.367-.077-.738-.1-1.1H39.937a20.066,20.066,0,0,1-.378,2.8Zm.376-5.409H12.2l-2.166-1.7H.185c.056-.367.122-.738.2-1.1H39.554a20.054,20.054,0,0,1,.381,2.8Zm-1.118-5.409H12.172l-2.127-1.7H1.823c.147-.315.3-.63.465-.934H37.654a19.944,19.944,0,0,1,1.163,2.633ZM36,8.026H11.576l-1.634-1.7H5.367c.35-.38.731-.749,1.114-1.1H33.457A20.165,20.165,0,0,1,36,8.028ZM29.876,2.617h-19.8a20.01,20.01,0,0,1,19.793,0Z" transform="translate(-8898.938 5458.778)" fill="#439676"/>
    <text id="SignifiDigital" transform="translate(-8845.804 5483.381)" font-size="19" font-family="HelveticaNeue-Medium, Helvetica Neue" font-weight="500" letter-spacing="-0.01em"><tspan x="0" y="0">SignifiDigital</tspan></text>
  </g>
</svg>
