<svg xmlns="http://www.w3.org/2000/svg" width="663.422" height="70.275" viewBox="0 0 663.422 70.275">
  <path id="quantum-boost-icon" d="M60.808,70.275l-7.347-7.359A34.022,34.022,0,0,1,44.9,66.636,36.442,36.442,0,0,1,35,68a35.662,35.662,0,0,1-13.623-2.672,34.975,34.975,0,0,1-11.126-7.286,33.862,33.862,0,0,1-7.5-10.807,33.216,33.216,0,0,1,0-26.469,33.862,33.862,0,0,1,7.5-10.807A34.975,34.975,0,0,1,21.377,2.672a36.064,36.064,0,0,1,27.247,0A34.975,34.975,0,0,1,59.749,9.958a33.862,33.862,0,0,1,7.5,10.807A33.143,33.143,0,0,1,67.667,46.2a34.635,34.635,0,0,1-6.519,10.4l6.8,6.646-7.14,7.027h0ZM26.437,11.847a21.905,21.905,0,0,0-6.993,5.036,23.568,23.568,0,0,0-4.715,7.469,25.064,25.064,0,0,0,0,18.3,23.568,23.568,0,0,0,4.715,7.469,21.905,21.905,0,0,0,6.993,5.036A20.659,20.659,0,0,0,35,57a25.985,25.985,0,0,0,5.994-.711,18.528,18.528,0,0,0,5.236-2.061l-9.66-9.741,5.9-5.782,9.8,9.968A27.149,27.149,0,0,0,57,33.5a24.73,24.73,0,0,0-1.729-9.148,23.568,23.568,0,0,0-4.715-7.469,21.9,21.9,0,0,0-6.992-5.036,20.778,20.778,0,0,0-17.127,0ZM506.574,66.074a25.5,25.5,0,0,1-8.105-5.251A24.385,24.385,0,0,1,493,53.036a23.7,23.7,0,0,1,0-19.073,24.4,24.4,0,0,1,5.465-7.788,25.5,25.5,0,0,1,8.105-5.251,26.55,26.55,0,0,1,19.851,0,25.509,25.509,0,0,1,8.106,5.251A24.4,24.4,0,0,1,540,33.963a23.689,23.689,0,0,1,0,19.073,24.385,24.385,0,0,1-5.465,7.788,25.509,25.509,0,0,1-8.106,5.251,26.55,26.55,0,0,1-19.851,0ZM507.661,33.1a15.214,15.214,0,0,0,0,19.8,11.577,11.577,0,0,0,17.678,0,15.214,15.214,0,0,0,0-19.8,11.577,11.577,0,0,0-17.678,0ZM454.574,66.074a25.494,25.494,0,0,1-8.105-5.251A24.385,24.385,0,0,1,441,53.036a23.7,23.7,0,0,1,0-19.073,24.4,24.4,0,0,1,5.465-7.788,25.494,25.494,0,0,1,8.105-5.251,26.55,26.55,0,0,1,19.851,0,25.5,25.5,0,0,1,8.106,5.251A24.4,24.4,0,0,1,488,33.963a23.689,23.689,0,0,1,0,19.073,24.385,24.385,0,0,1-5.465,7.788,25.5,25.5,0,0,1-8.106,5.251,26.55,26.55,0,0,1-19.851,0ZM455.661,33.1a15.214,15.214,0,0,0,0,19.8,11.577,11.577,0,0,0,17.678,0,15.214,15.214,0,0,0,0-19.8,11.577,11.577,0,0,0-17.678,0ZM256.186,66.835C243.26,63.789,243.723,50.7,243.723,50.7V20.746h11.93V49.993s-.473,6.533,8.02,7.349,11.949-7.349,11.949-7.349V20.746h11.786v45.3H275.621V59.833a18.265,18.265,0,0,1-14.666,7.577A20.759,20.759,0,0,1,256.186,66.835Zm-171.405,0C71.855,63.789,72.319,50.7,72.319,50.7V20.746H84.248V49.993s-.472,6.533,8.02,7.349,11.948-7.349,11.948-7.349V20.746H116v45.3H104.216V59.833A18.265,18.265,0,0,1,89.551,67.41,20.76,20.76,0,0,1,84.781,66.835Zm472.121.006a40.007,40.007,0,0,1-16.4-7.523l6.615-7.2a32.935,32.935,0,0,0,12.191,5.946c5.018,1.093,11.317-.334,12.566-3.919,2.926-10.04-34-3.4-28.671-22.493,2.714-9.718,13.742-13.339,23.461-11.989,8.863,1.229,16.478,7.265,16.478,7.265l-6.4,7.483a23.42,23.42,0,0,0-10.08-5.814c-5.522-1.3-12.471.62-12.371,4.2-.147,4.319,10.894,4.5,19.806,7.7,6.66,2.389,12.018,6.954,9.043,15.559-3.188,8.2-11.672,11.342-20.052,11.342A34.78,34.78,0,0,1,556.9,66.841Zm39.729-2.361c-3.258-3.148-3.4-9.679-3.4-9.679V31.67H585.5V22.176h7.727V10.194h11.722V22.176h11.42V31.67h-11.42V52.712s-.07,2.575.94,3.836a4.292,4.292,0,0,0,3.1,1.206h7.98V67.4H606.26s-.105,0-.3,0C604.673,67.4,599.47,67.224,596.631,64.48Zm-462.188,2.8a17.739,17.739,0,0,1-8.832-2.106,14.681,14.681,0,0,1-6.413-7.611,12.692,12.692,0,0,1-.021-10.062,15.673,15.673,0,0,1,9.066-7.956,44.846,44.846,0,0,1,14.813-2.225,61.8,61.8,0,0,1,7.747.463,8.478,8.478,0,0,0-1.064-3.683,9.251,9.251,0,0,0-2.55-2.944,12.842,12.842,0,0,0-4.979-2.2,13.716,13.716,0,0,0-3.015-.334,18.439,18.439,0,0,0-9.212,2.8,22.308,22.308,0,0,0-3.769,2.8l-6.236-7.14,0-.005a22.921,22.921,0,0,1,5.08-3.77,28.913,28.913,0,0,1,6.2-2.6,30.673,30.673,0,0,1,8.5-1.18,35.082,35.082,0,0,1,6.085.547,21.372,21.372,0,0,1,9.572,4.012,16.713,16.713,0,0,1,4.784,5.949,18.425,18.425,0,0,1,1.838,7.747V66H151.3V60.826l0,.005a18.042,18.042,0,0,1-7.718,4.893,29.511,29.511,0,0,1-9.131,1.554Zm-1.91-19.849a6.113,6.113,0,0,0-2.38,4.739,5.464,5.464,0,0,0,2.38,4.356,10,10,0,0,0,6.143,1.906,13.37,13.37,0,0,0,6.377-1.612,15.1,15.1,0,0,0,5.719-5.768V45.541H139.4C138.646,45.54,134.763,45.631,132.533,47.431Zm65.539,18.76V36.943s.473-6.533-8.019-7.349A11.223,11.223,0,0,0,178.1,36.943c-.518.822-.569,7.795-.576,15.19s0,14.057,0,14.057H165.816v-45.3h11.712v7.646s7.086-11.482,20.011-8.437S210,36.237,210,36.237V66.19ZM386.5,66.1V1.644h28.094a25.061,25.061,0,0,1,9.492,2.05,17.585,17.585,0,0,1,6.255,4.54,17.428,17.428,0,0,1,3.9,8.64,12.042,12.042,0,0,1-.726,6.307,16.212,16.212,0,0,1-2.989,4.759,21.959,21.959,0,0,1-4.787,4.053l.009,0a22.825,22.825,0,0,1,6.692,4.59,16.134,16.134,0,0,1,3.9,6.06,15.4,15.4,0,0,1,.278,8.854,16.659,16.659,0,0,1-4.595,8.087,21.412,21.412,0,0,1-6.827,4.374,30.029,30.029,0,0,1-8.9,2.138Zm12.2-10.642h17.321a13.469,13.469,0,0,0,4.439-1.422,8.8,8.8,0,0,0,3.056-2.607,7.807,7.807,0,0,0,1.4-4.607,7.6,7.6,0,0,0-1.378-4.576,8.5,8.5,0,0,0-3.059-2.541,13.373,13.373,0,0,0-4.457-1.327H398.7Zm0-27.464h15.545a11.563,11.563,0,0,0,3.984-1.357,8.053,8.053,0,0,0,2.744-2.489,7.782,7.782,0,0,0,1.256-4.4,7.58,7.58,0,0,0-1.238-4.369,7.749,7.749,0,0,0-2.746-2.425,11.428,11.428,0,0,0-4-1.267H398.7ZM351.928,66.085V39.027s-.412-11.569-9.7-9.531-8.643,12.084-8.643,12.084V66.085H321.557V39.027s.028-10.8-9.15-9.531-9.275,12.084-9.275,12.084V66.085H291.373V20.746h11.758v7.969s3.881-9.787,14.723-9.231A14.658,14.658,0,0,1,331.363,29.5a16.864,16.864,0,0,1,5.071-6.648,17.728,17.728,0,0,1,15.189-2.966c12.46,3.24,12.406,17.762,12.406,17.762V66.085ZM221.236,63.028c-3.258-3.148-3.4-9.679-3.4-9.679V30.218h-7.727V20.723h7.727V8.743h11.722V20.723h11.42v9.494h-11.42V51.26s-.07,2.576.94,3.836a4.3,4.3,0,0,0,3.1,1.207h7.98v9.642H230.865s-.106,0-.3,0C229.274,65.948,224.074,65.771,221.236,63.028ZM660.08,18.043V9.688L655.568,15.7a1.671,1.671,0,0,1-2.674,0l-4.512-6.016v8.356a1.671,1.671,0,0,1-3.342,0V4.674a1.67,1.67,0,0,1,3.008-1l6.182,8.246,6.183-8.246a1.67,1.67,0,0,1,3.008,1V18.043a1.671,1.671,0,0,1-3.342,0Zm-25.066,0V6.345h-3.342a1.671,1.671,0,1,1,0-3.342H641.7a1.671,1.671,0,1,1,0,3.342h-3.342v11.7a1.671,1.671,0,0,1-3.342,0Z"/>
</svg>
