<svg xmlns="http://www.w3.org/2000/svg" width="25.438" height="18" viewBox="0 0 25.438 18">
  <g id="youtube-svgrepo-com" transform="translate(0 -67.393)">
    <path id="Path_107" data-name="Path 107" d="M20.154,67.393H5.283A5.283,5.283,0,0,0,0,72.676V80.11a5.283,5.283,0,0,0,5.283,5.283H20.154a5.283,5.283,0,0,0,5.283-5.283V72.676A5.283,5.283,0,0,0,20.154,67.393Zm-3.573,9.362L9.626,80.072a.279.279,0,0,1-.4-.252V72.978a.279.279,0,0,1,.405-.249l6.956,3.525A.279.279,0,0,1,16.581,76.755Z" fill="#fff"/>
  </g>
</svg>
