<svg width="77" height="76" viewBox="0 0 77 76" fill="none" xmlns="http://www.w3.org/2000/svg">
<circle cx="61" cy="16" r="15.25" fill="white" stroke="#D9DED4" stroke-width="1.5"/>
<path d="M58.0955 11.1759H67.5027V19.0152H60.5992L60.952 20.1911H67.5027H68.6786V19.0152V11.1759V10H67.5027H58.0955H56.9196V11.1759V12.3518C57.3361 12.3518 57.733 12.4326 58.0955 12.5796V11.1759ZM65.5429 15.8795L65.9348 15.4875V12.7437H63.1911L62.7991 13.1357L63.7545 14.0911L62.4071 15.4385L61.2557 14.2871L60.8393 13.8706L60.0088 14.7036L60.4253 15.12L61.9931 16.6879C62.2231 16.9179 62.5961 16.9179 62.8261 16.6879L64.5899 14.9241L65.5453 15.8795H65.5429ZM56.9196 14.3116C57.0741 14.3116 57.227 14.342 57.3696 14.4011C57.5123 14.4602 57.6419 14.5468 57.7511 14.656C57.8603 14.7652 57.9469 14.8948 58.006 15.0375C58.0651 15.1802 58.0955 15.3331 58.0955 15.4875C58.0955 15.6419 58.0651 15.7948 58.006 15.9375C57.9469 16.0802 57.8603 16.2098 57.7511 16.319C57.6419 16.4282 57.5123 16.5148 57.3696 16.5739C57.227 16.633 57.0741 16.6634 56.9196 16.6634C56.7652 16.6634 56.6123 16.633 56.4696 16.5739C56.327 16.5148 56.1974 16.4282 56.0882 16.319C55.979 16.2098 55.8924 16.0802 55.8333 15.9375C55.7742 15.7948 55.7438 15.6419 55.7438 15.4875C55.7438 15.3331 55.7742 15.1802 55.8333 15.0375C55.8924 14.8948 55.979 14.7652 56.0882 14.656C56.1974 14.5468 56.327 14.4602 56.4696 14.4011C56.6123 14.342 56.7652 14.3116 56.9196 14.3116ZM56.9196 17.8393C57.2285 17.8393 57.5343 17.7785 57.8196 17.6603C58.105 17.5421 58.3642 17.3688 58.5826 17.1505C58.801 16.9321 58.9742 16.6728 59.0924 16.3875C59.2106 16.1022 59.2714 15.7963 59.2714 15.4875C59.2714 15.1787 59.2106 14.8728 59.0924 14.5875C58.9742 14.3022 58.801 14.0429 58.5826 13.8245C58.3642 13.6062 58.105 13.4329 57.8196 13.3147C57.5343 13.1965 57.2285 13.1357 56.9196 13.1357C56.6108 13.1357 56.305 13.1965 56.0197 13.3147C55.7343 13.4329 55.4751 13.6062 55.2567 13.8245C55.0383 14.0429 54.8651 14.3022 54.7469 14.5875C54.6287 14.8728 54.5679 15.1787 54.5679 15.4875C54.5679 15.7963 54.6287 16.1022 54.7469 16.3875C54.8651 16.6728 55.0383 16.9321 55.2567 17.1505C55.4751 17.3688 55.7343 17.5421 56.0197 17.6603C56.305 17.7785 56.6108 17.8393 56.9196 17.8393ZM55.0505 19.7991H58.7888L59.2592 21.367H54.5801L55.0505 19.7991ZM60.0981 20.0723C59.8401 19.2122 59.0484 18.6232 58.1505 18.6232H55.6888C54.7908 18.6232 53.9992 19.2122 53.7412 20.0723L53.3528 21.367L53 22.5429H54.2273H59.6119H60.8393L60.4865 21.367L60.0981 20.0723Z" fill="#BCC0BD"/>
<circle cx="61" cy="60" r="15.25" fill="white" stroke="#D9DED4" stroke-width="1.5"/>
<path d="M57.0938 54.3259V58.9555L55.7679 58.055V54.3259V53H57.0938H65.0491H66.375V54.3259V58.055L65.0491 58.9555V54.3259H61.0714H57.0938ZM61.8172 63.8198C61.3669 64.1251 60.776 64.1251 60.3256 63.8198L55.3259 60.4278V65.817H66.817V60.4278L61.8172 63.8198ZM66.817 58.8256C67.3804 58.443 68.1429 58.8462 68.1429 59.5273V65.817V67.1429H66.817H55.3259H54V65.817V59.5273C54 58.8462 54.7625 58.443 55.3259 58.8256L61.0714 62.7232L66.817 58.8256ZM61.6239 55.6518V55.8258C61.8062 55.859 62.0852 55.9142 62.2067 55.9473L62.7398 56.0882L62.4553 57.1572L61.9222 57.0164C61.8172 56.9887 61.4416 56.9141 61.3228 56.8976C60.9858 56.8451 60.7096 56.8893 60.5328 56.9694C60.3588 57.0495 60.3146 57.1407 60.3063 57.1931C60.2897 57.2871 60.3063 57.323 60.309 57.3313C60.3173 57.3451 60.3367 57.381 60.4085 57.4279C60.577 57.5439 60.8422 57.6268 61.2344 57.7428L61.2565 57.7484C61.5907 57.8506 62.0382 57.9831 62.3725 58.229C62.5575 58.3643 62.7316 58.5439 62.8393 58.7953C62.9498 59.0466 62.9719 59.3229 62.9222 59.6074C62.831 60.1322 62.483 60.4913 62.0493 60.6764C61.9139 60.7344 61.7703 60.7758 61.6239 60.8034V60.9554V61.5078H60.519V60.9554V60.7786C60.2566 60.7178 59.9113 60.6018 59.6931 60.5272C59.6461 60.5106 59.6047 60.4968 59.5715 60.4858L59.0467 60.3117L59.3947 59.2621L59.9196 59.4361C59.9748 59.4554 60.0356 59.4748 60.0963 59.4941C60.3588 59.5825 60.6543 59.6847 60.8201 59.7123C61.1736 59.7676 61.4471 59.7317 61.6156 59.6598C61.7675 59.5963 61.82 59.5134 61.8366 59.4168C61.8559 59.3063 61.8393 59.2538 61.8311 59.2317C61.82 59.2068 61.7951 59.1709 61.7289 59.1212C61.5659 59.0024 61.3062 58.914 60.9195 58.798L60.8587 58.7787C60.5355 58.682 60.1129 58.5549 59.7925 58.3367C59.6102 58.2124 59.4279 58.0412 59.3146 57.7981C59.1986 57.5495 59.171 57.2788 59.2207 56.997C59.3091 56.4915 59.6682 56.1435 60.0798 55.9556C60.2179 55.8921 60.367 55.8451 60.5217 55.8148V55.6518V55.0993H61.6266V55.6518H61.6239Z" fill="#BCC0BD"/>
<circle cx="19" cy="38" r="18.1" fill="white" stroke="#CFD6CD" stroke-width="1.8"/>
<path d="M14.3868 28.374C14.8487 28.374 15.2232 28.7485 15.2232 29.2104V30.6045H20.2418V29.2104C20.2418 28.7485 20.6163 28.374 21.0782 28.374C21.5401 28.374 21.9146 28.7485 21.9146 29.2104V30.6045H25.5392V33.3926V35.0654H24.9816H23.8663H19.963H11.5986V44.5449H19.841C20.2697 45.2001 20.8168 45.7682 21.4546 46.2178H11.5986H9.92578V44.5449V35.0654V33.3926V30.6045H13.5503V29.2104C13.5503 28.7485 13.9248 28.374 14.3868 28.374ZM19.963 41.1992C19.963 39.8682 20.4917 38.5917 21.4329 37.6506C22.374 36.7094 23.6505 36.1807 24.9816 36.1807C26.3126 36.1807 27.5891 36.7094 28.5302 37.6506C29.4714 38.5917 30.0001 39.8682 30.0001 41.1992C30.0001 42.5302 29.4714 43.8067 28.5302 44.7479C27.5891 45.689 26.3126 46.2178 24.9816 46.2178C23.6505 46.2178 22.374 45.689 21.4329 44.7479C20.4917 43.8067 19.963 42.5302 19.963 41.1992ZM25.5392 38.9688C25.5392 38.6608 25.2895 38.4111 24.9816 38.4111C24.6736 38.4111 24.4239 38.6608 24.4239 38.9688V39.9814V41.1992C24.4239 41.5072 24.6736 41.7568 24.9816 41.7568H26.0519H26.6544C26.9624 41.7568 27.212 41.5072 27.212 41.1992C27.212 40.8913 26.9624 40.6416 26.6544 40.6416H26.0519H25.5392V39.9814V38.9688Z" fill="black"/>
</svg>
