<svg width="175" height="48" viewBox="0 0 175 48" fill="none" xmlns="http://www.w3.org/2000/svg">
<g clip-path="url(#clip0_1742_6367)">
<path fill-rule="evenodd" clip-rule="evenodd" d="M11.0412 0H36.9588C43.0566 0 48 4.94332 48 11.0412V36.9588C48 43.0566 43.0566 48 36.9588 48H11.0412C4.94332 48 0 43.0566 0 36.9588V11.0412C0 4.94332 4.94332 0 11.0412 0ZM31.9452 7.66772V11.5961V11.5973C31.9452 11.9975 32.2692 12.3229 32.6707 12.3229H36.4874C37.1552 12.3229 37.6966 12.8642 37.6966 13.5321V34.4593C37.6966 35.1271 37.1552 35.6685 36.4874 35.6685H32.6707C32.2705 35.6685 31.9452 35.9926 31.9452 36.394V40.3298C31.9452 40.9976 31.4038 41.539 30.736 41.539H17.2567C16.5888 41.539 16.0475 40.9976 16.0475 40.3298V36.394C16.0475 35.9938 15.7234 35.6685 15.3219 35.6685H11.5126C10.8448 35.6685 10.3034 35.1271 10.3034 34.4593V29.6753C10.3034 29.0075 10.8448 28.4661 11.5126 28.4661H16.2905C16.9584 28.4661 17.4997 29.0075 17.4997 29.6753V33.611C17.4997 34.0112 17.8251 34.3353 18.2253 34.3353H29.7686C30.1688 34.3353 30.4941 34.01 30.4941 33.6098L30.5002 14.384C30.5002 13.9826 30.1762 13.6585 29.7747 13.6585H19.6149C18.9471 13.6585 18.4057 13.1171 18.4057 12.4493V7.66772C18.4057 6.99989 18.9471 6.45851 19.6149 6.45851H30.736C31.4038 6.45851 31.9452 6.99989 31.9452 7.66772Z" fill="white"/>
<path d="M71.4294 10.0503V28.4339C71.4294 31.5693 70.2374 32.7907 67.1794 32.7907H62.0873L61.5508 37.7368H67.1782C73.0671 37.7368 76.4455 34.3854 76.4455 28.5407V10.0503H71.4282H71.4294Z" fill="white"/>
<path d="M117.012 21.2315V16.4634H110.644V11.9458H106.227L105.728 16.4634H101.678V21.2328H105.697V29.9292C105.697 34.8913 108.414 37.7381 113.15 37.7381H117.011V32.8632H113.221C111.549 32.8632 110.643 32.3845 110.643 29.858V21.2328H117.011L117.012 21.2315Z" fill="white"/>
<path d="M143.943 10.3325V21.2412H132.244V10.3325H127.064V37.652H132.244V26.1897H143.943V37.652H149.121V10.3325H143.943Z" fill="white"/>
<path d="M167.366 27.9722C170.784 26.5997 172.82 23.4496 172.82 19.5299C172.82 16.8021 171.879 14.4831 170.099 12.8234C168.351 11.1943 165.927 10.3325 163.09 10.3325H152.311V37.652H157.49V28.3319L161.338 28.338L167.85 37.6569H174.19L167.367 27.9734L167.366 27.9722ZM157.489 15.1644H162.875C165.96 15.1644 167.729 16.656 167.729 19.2586C167.729 21.8611 165.96 23.3858 162.875 23.3858H157.489V15.1657V15.1644Z" fill="white"/>
<path d="M97.688 18.5809C95.7349 16.5836 93.0795 15.5278 90.0068 15.5278C83.6084 15.5278 79.1387 20.0848 79.1387 26.6096C79.1387 33.1344 83.5937 37.7269 89.9712 37.7269C94.6374 37.7269 98.5572 35.2005 100.201 31.1333L100.335 30.8031L94.9934 30.3747C93.9647 31.9767 92.1637 32.8876 89.9712 32.8876C87.2275 32.8876 85.1638 31.4047 84.4076 28.9052H100.807L100.839 27.4971C100.922 23.9113 99.802 20.7452 97.688 18.5822V18.5809ZM84.1977 24.352C84.5071 23.2999 85.0423 22.4185 85.7911 21.731C86.8641 20.744 88.3225 20.2223 90.0068 20.2223C92.8794 20.2223 94.9897 21.7261 95.811 24.352H84.1977Z" fill="white"/>
</g>
<defs>
<clipPath id="clip0_1742_6367">
<rect width="174.191" height="48" fill="white"/>
</clipPath>
</defs>
</svg>
