<?xml version="1.0" encoding="UTF-8"?> <svg xmlns="http://www.w3.org/2000/svg" width="113" height="31" viewBox="0 0 113 31" fill="none"><path fill-rule="evenodd" clip-rule="evenodd" d="M7.16224 0H23.9745C27.9301 0 31.1367 3.19256 31.1367 7.13079V23.8692C31.1367 27.8074 27.9301 31 23.9745 31H7.16224C3.20665 31 0 27.8074 0 23.8692V7.13079C0 3.19256 3.20665 0 7.16224 0ZM20.7222 4.95208V7.48916V7.48996C20.7222 7.74842 20.9325 7.95853 21.1929 7.95853H23.6687C24.1019 7.95853 24.4531 8.30817 24.4531 8.73947V22.255C24.4531 22.6863 24.1019 23.0359 23.6687 23.0359H21.1929C20.9333 23.0359 20.7222 23.2453 20.7222 23.5045V26.0463C20.7222 26.4777 20.3711 26.8273 19.9379 26.8273H11.1941C10.7609 26.8273 10.4097 26.4777 10.4097 26.0463V23.5045C10.4097 23.246 10.1995 23.0359 9.93907 23.0359H7.46804C7.03483 23.0359 6.68365 22.6863 6.68365 22.255V19.1653C6.68365 18.734 7.03483 18.3844 7.46804 18.3844H10.5674C11.0006 18.3844 11.3518 18.734 11.3518 19.1653V21.7071C11.3518 21.9656 11.5628 22.1749 11.8224 22.1749H19.3103C19.5699 22.1749 19.781 21.9648 19.781 21.7064L19.785 9.2897C19.785 9.03044 19.5747 8.82113 19.3143 8.82113H12.7239C12.2906 8.82113 11.9395 8.47149 11.9395 8.04019V4.95208C11.9395 4.52078 12.2906 4.17113 12.7239 4.17113H19.9379C20.3711 4.17113 20.7222 4.52078 20.7222 4.95208Z" fill="#11150A"></path><path d="M46.3358 6.49121V18.364C46.3358 20.3889 45.5626 21.1778 43.5789 21.1778H40.2757L39.9277 24.3721H43.5781C47.3982 24.3721 49.5897 22.2077 49.5897 18.4329V6.49121H46.335H46.3358Z" fill="#11150A"></path><path d="M75.9041 13.7129V10.6335H71.7735V7.71582H68.9082L68.5841 10.6335H65.957V13.7136H68.5642V19.3301C68.5642 22.5348 70.3265 24.3734 73.3988 24.3734H75.9033V21.225H73.445C72.3604 21.225 71.7727 20.9158 71.7727 19.2841V13.7136H75.9033L75.9041 13.7129Z" fill="#11150A"></path><path d="M93.3746 6.67383V13.719H85.7855V6.67383H82.4258V24.3177H85.7855V16.9149H93.3746V24.3177H96.7335V6.67383H93.3746Z" fill="#11150A"></path><path d="M108.569 18.0661C110.786 17.1797 112.107 15.1453 112.107 12.6138C112.107 10.8521 111.496 9.35442 110.342 8.2825C109.208 7.2304 107.636 6.67383 105.795 6.67383H98.8027V24.3177H102.162V18.2984L104.659 18.3024L108.883 24.3208H112.996L108.57 18.0669L108.569 18.0661ZM102.162 9.79444H105.656C107.657 9.79444 108.805 10.7577 108.805 12.4386C108.805 14.1194 107.657 15.1041 105.656 15.1041H102.162V9.79524V9.79444Z" fill="#11150A"></path><path d="M63.3686 12.0011C62.1016 10.7111 60.3791 10.0293 58.3859 10.0293C54.2354 10.0293 51.3359 12.9723 51.3359 17.1863C51.3359 21.4002 54.2258 24.3662 58.3628 24.3662C61.3897 24.3662 63.9324 22.7345 64.9987 20.1079L65.0855 19.8946L61.6206 19.6179C60.9533 20.6525 59.7851 21.2408 58.3628 21.2408C56.583 21.2408 55.2444 20.2831 54.7538 18.6689H65.3921L65.4128 17.7595C65.4661 15.4436 64.7399 13.3989 63.3686 12.0019V12.0011ZM54.6176 15.7282C54.8183 15.0488 55.1655 14.4795 55.6513 14.0355C56.3473 13.3981 57.2933 13.0611 58.3859 13.0611C60.2493 13.0611 61.6182 14.0323 62.151 15.7282H54.6176Z" fill="#11150A"></path></svg> 